<svg xmlns="http://www.w3.org/2000/svg" xmlns:xlink="http://www.w3.org/1999/xlink" width="500" zoomAndPan="magnify" viewBox="0 0 375 374.999991" height="500" preserveAspectRatio="xMidYMid meet" version="1.0"><path fill="#000000" d="M 366.042969 116.785156 L 12.351562 116.785156 C 11.757812 116.785156 11.171875 116.726562 10.589844 116.609375 C 10.007812 116.496094 9.445312 116.324219 8.894531 116.097656 C 8.347656 115.871094 7.828125 115.589844 7.335938 115.261719 C 6.84375 114.933594 6.386719 114.558594 5.96875 114.136719 C 5.546875 113.71875 5.171875 113.261719 4.84375 112.769531 C 4.515625 112.277344 4.238281 111.753906 4.011719 111.207031 C 3.78125 110.660156 3.613281 110.09375 3.496094 109.511719 C 3.378906 108.929688 3.324219 108.34375 3.324219 107.75 C 3.324219 107.15625 3.378906 106.570312 3.496094 105.988281 C 3.613281 105.40625 3.78125 104.839844 4.011719 104.292969 C 4.238281 103.746094 4.515625 103.226562 4.84375 102.730469 C 5.171875 102.238281 5.546875 101.78125 5.96875 101.363281 C 6.386719 100.941406 6.84375 100.570312 7.335938 100.238281 C 7.828125 99.910156 8.347656 99.632812 8.894531 99.40625 C 9.445312 99.175781 10.007812 99.007812 10.589844 98.890625 C 11.171875 98.773438 11.757812 98.71875 12.351562 98.71875 L 366.042969 98.71875 C 366.636719 98.71875 367.222656 98.773438 367.804688 98.890625 C 368.386719 99.007812 368.949219 99.175781 369.5 99.40625 C 370.046875 99.632812 370.566406 99.910156 371.058594 100.238281 C 371.550781 100.570312 372.007812 100.941406 372.425781 101.363281 C 372.847656 101.78125 373.222656 102.238281 373.550781 102.730469 C 373.878906 103.226562 374.15625 103.746094 374.386719 104.292969 C 374.613281 104.839844 374.78125 105.40625 374.898438 105.988281 C 375.015625 106.570312 375.070312 107.15625 375.070312 107.75 C 375.070312 108.34375 375.015625 108.929688 374.898438 109.511719 C 374.78125 110.09375 374.613281 110.660156 374.386719 111.207031 C 374.15625 111.753906 373.878906 112.277344 373.550781 112.769531 C 373.222656 113.261719 372.847656 113.71875 372.425781 114.136719 C 372.007812 114.558594 371.550781 114.933594 371.058594 115.261719 C 370.566406 115.589844 370.046875 115.871094 369.5 116.097656 C 368.949219 116.324219 368.386719 116.496094 367.804688 116.609375 C 367.222656 116.726562 366.636719 116.785156 366.042969 116.785156 " fill-opacity="1" fill-rule="nonzero"/><path fill="#000000" d="M 366.042969 196.628906 L 12.351562 196.628906 C 11.757812 196.628906 11.171875 196.570312 10.589844 196.453125 C 10.007812 196.339844 9.445312 196.167969 8.894531 195.941406 C 8.347656 195.714844 7.828125 195.4375 7.335938 195.105469 C 6.84375 194.777344 6.386719 194.402344 5.96875 193.984375 C 5.546875 193.5625 5.171875 193.105469 4.84375 192.613281 C 4.515625 192.121094 4.238281 191.601562 4.011719 191.050781 C 3.78125 190.503906 3.613281 189.9375 3.496094 189.355469 C 3.378906 188.777344 3.324219 188.1875 3.324219 187.59375 C 3.324219 187 3.378906 186.414062 3.496094 185.832031 C 3.613281 185.25 3.78125 184.6875 4.011719 184.136719 C 4.238281 183.589844 4.515625 183.070312 4.84375 182.578125 C 5.171875 182.082031 5.546875 181.625 5.96875 181.207031 C 6.386719 180.789062 6.84375 180.414062 7.335938 180.082031 C 7.828125 179.753906 8.347656 179.476562 8.894531 179.25 C 9.445312 179.023438 10.007812 178.851562 10.589844 178.734375 C 11.171875 178.621094 11.757812 178.5625 12.351562 178.5625 L 366.042969 178.5625 C 366.636719 178.5625 367.222656 178.621094 367.804688 178.734375 C 368.386719 178.851562 368.949219 179.023438 369.5 179.25 C 370.046875 179.476562 370.566406 179.753906 371.058594 180.082031 C 371.550781 180.414062 372.007812 180.789062 372.425781 181.207031 C 372.847656 181.625 373.222656 182.082031 373.550781 182.578125 C 373.878906 183.070312 374.15625 183.589844 374.386719 184.136719 C 374.613281 184.6875 374.78125 185.25 374.898438 185.832031 C 375.015625 186.414062 375.070312 187 375.070312 187.59375 C 375.070312 188.1875 375.015625 188.777344 374.898438 189.355469 C 374.78125 189.9375 374.613281 190.503906 374.386719 191.050781 C 374.15625 191.601562 373.878906 192.121094 373.550781 192.613281 C 373.222656 193.105469 372.847656 193.5625 372.425781 193.984375 C 372.007812 194.402344 371.550781 194.777344 371.058594 195.105469 C 370.566406 195.4375 370.046875 195.714844 369.5 195.941406 C 368.949219 196.167969 368.386719 196.339844 367.804688 196.453125 C 367.222656 196.570312 366.636719 196.628906 366.042969 196.628906 " fill-opacity="1" fill-rule="nonzero"/><path fill="#000000" d="M 362.714844 276.46875 L 9.027344 276.46875 C 8.4375 276.46875 7.847656 276.410156 7.265625 276.292969 C 6.6875 276.179688 6.121094 276.007812 5.574219 275.78125 C 5.027344 275.550781 4.503906 275.273438 4.011719 274.945312 C 3.519531 274.613281 3.0625 274.242188 2.644531 273.820312 C 2.226562 273.402344 1.851562 272.945312 1.523438 272.453125 C 1.191406 271.960938 0.914062 271.4375 0.6875 270.890625 C 0.460938 270.34375 0.289062 269.777344 0.171875 269.195312 C 0.0585938 268.613281 0 268.027344 0 267.433594 C 0 266.839844 0.0585938 266.253906 0.171875 265.671875 C 0.289062 265.089844 0.460938 264.523438 0.6875 263.976562 C 0.914062 263.429688 1.191406 262.90625 1.523438 262.414062 C 1.851562 261.921875 2.226562 261.464844 2.644531 261.046875 C 3.0625 260.625 3.519531 260.253906 4.011719 259.921875 C 4.503906 259.59375 5.027344 259.316406 5.574219 259.085938 C 6.121094 258.859375 6.6875 258.6875 7.265625 258.574219 C 7.847656 258.457031 8.4375 258.398438 9.027344 258.398438 L 362.714844 258.398438 C 363.308594 258.398438 363.894531 258.457031 364.476562 258.574219 C 365.058594 258.6875 365.621094 258.859375 366.167969 259.085938 C 366.71875 259.316406 367.238281 259.59375 367.730469 259.921875 C 368.222656 260.253906 368.679688 260.625 369.097656 261.046875 C 369.519531 261.464844 369.890625 261.921875 370.222656 262.414062 C 370.550781 262.90625 370.828125 263.429688 371.054688 263.976562 C 371.28125 264.523438 371.453125 265.089844 371.570312 265.671875 C 371.6875 266.253906 371.742188 266.839844 371.742188 267.433594 C 371.742188 268.027344 371.6875 268.613281 371.570312 269.195312 C 371.453125 269.777344 371.28125 270.34375 371.054688 270.890625 C 370.828125 271.4375 370.550781 271.960938 370.222656 272.453125 C 369.890625 272.945312 369.519531 273.402344 369.097656 273.820312 C 368.679688 274.242188 368.222656 274.613281 367.730469 274.945312 C 367.238281 275.273438 366.71875 275.550781 366.167969 275.78125 C 365.621094 276.007812 365.058594 276.179688 364.476562 276.292969 C 363.894531 276.410156 363.308594 276.46875 362.714844 276.46875 " fill-opacity="1" fill-rule="nonzero"/></svg>