<svg xmlns="http://www.w3.org/2000/svg" xmlns:xlink="http://www.w3.org/1999/xlink" width="500" zoomAndPan="magnify" viewBox="0 0 375 374.999991" height="500" preserveAspectRatio="xMidYMid meet" version="1.0"><defs><clipPath id="5a24dcea59"><path d="M 3.289062 3.289062 L 371.539062 3.289062 L 371.539062 371.539062 L 3.289062 371.539062 Z M 3.289062 3.289062 " clip-rule="nonzero"/></clipPath></defs><g clip-path="url(#5a24dcea59)"><path fill="#ff5555" d="M 187.496094 3.289062 C 184.480469 3.289062 181.46875 3.363281 178.457031 3.511719 C 175.445312 3.660156 172.441406 3.882812 169.441406 4.175781 C 166.441406 4.472656 163.449219 4.839844 160.46875 5.285156 C 157.484375 5.726562 154.515625 6.242188 151.558594 6.828125 C 148.601562 7.417969 145.664062 8.078125 142.738281 8.808594 C 139.8125 9.542969 136.910156 10.347656 134.023438 11.222656 C 131.140625 12.097656 128.277344 13.042969 125.4375 14.058594 C 122.601562 15.074219 119.789062 16.15625 117.003906 17.3125 C 114.21875 18.464844 111.464844 19.6875 108.738281 20.976562 C 106.011719 22.265625 103.320312 23.621094 100.660156 25.039062 C 98.003906 26.460938 95.382812 27.945312 92.796875 29.496094 C 90.210938 31.046875 87.664062 32.660156 85.15625 34.332031 C 82.648438 36.007812 80.1875 37.746094 77.765625 39.539062 C 75.34375 41.335938 72.96875 43.191406 70.636719 45.101562 C 68.304688 47.015625 66.023438 48.984375 63.789062 51.007812 C 61.558594 53.03125 59.375 55.109375 57.242188 57.242188 C 55.109375 59.375 53.03125 61.558594 51.007812 63.789062 C 48.984375 66.023438 47.015625 68.304688 45.101562 70.636719 C 43.191406 72.96875 41.335938 75.34375 39.539062 77.765625 C 37.746094 80.1875 36.007812 82.648438 34.332031 85.15625 C 32.660156 87.664062 31.046875 90.210938 29.496094 92.796875 C 27.945312 95.382812 26.460938 98.003906 25.039062 100.660156 C 23.621094 103.320312 22.265625 106.011719 20.976562 108.738281 C 19.6875 111.464844 18.464844 114.21875 17.3125 117.003906 C 16.15625 119.789062 15.074219 122.601562 14.058594 125.4375 C 13.042969 128.277344 12.097656 131.140625 11.222656 134.023438 C 10.347656 136.910156 9.542969 139.8125 8.808594 142.738281 C 8.078125 145.664062 7.417969 148.601562 6.828125 151.558594 C 6.242188 154.515625 5.726562 157.484375 5.285156 160.46875 C 4.839844 163.449219 4.472656 166.441406 4.175781 169.441406 C 3.882812 172.441406 3.660156 175.445312 3.511719 178.457031 C 3.363281 181.46875 3.289062 184.480469 3.289062 187.496094 C 3.289062 190.511719 3.363281 193.523438 3.511719 196.535156 C 3.660156 199.546875 3.882812 202.550781 4.175781 205.550781 C 4.472656 208.550781 4.839844 211.542969 5.285156 214.523438 C 5.726562 217.507812 6.242188 220.476562 6.828125 223.433594 C 7.417969 226.390625 8.078125 229.332031 8.808594 232.253906 C 9.542969 235.179688 10.347656 238.085938 11.222656 240.96875 C 12.097656 243.855469 13.042969 246.714844 14.058594 249.554688 C 15.074219 252.390625 16.15625 255.203125 17.3125 257.988281 C 18.464844 260.773438 19.6875 263.53125 20.976562 266.253906 C 22.265625 268.980469 23.621094 271.671875 25.039062 274.332031 C 26.460938 276.988281 27.945312 279.613281 29.496094 282.199219 C 31.046875 284.785156 32.660156 287.328125 34.332031 289.835938 C 36.007812 292.34375 37.746094 294.808594 39.539062 297.226562 C 41.335938 299.648438 43.191406 302.027344 45.101562 304.355469 C 47.015625 306.6875 48.984375 308.96875 51.007812 311.203125 C 53.03125 313.4375 55.109375 315.617188 57.242188 317.75 C 59.375 319.882812 61.558594 321.960938 63.789062 323.984375 C 66.023438 326.007812 68.304688 327.976562 70.636719 329.890625 C 72.96875 331.804688 75.34375 333.65625 77.765625 335.453125 C 80.1875 337.25 82.648438 338.984375 85.15625 340.660156 C 87.664062 342.332031 90.210938 343.945312 92.796875 345.496094 C 95.382812 347.046875 98.003906 348.53125 100.660156 349.953125 C 103.320312 351.375 106.011719 352.730469 108.738281 354.019531 C 111.464844 355.304688 114.21875 356.527344 117.003906 357.679688 C 119.789062 358.835938 122.601562 359.917969 125.4375 360.933594 C 128.277344 361.949219 131.140625 362.898438 134.023438 363.773438 C 136.910156 364.648438 139.8125 365.449219 142.738281 366.183594 C 145.664062 366.914062 148.601562 367.574219 151.558594 368.164062 C 154.515625 368.753906 157.484375 369.265625 160.46875 369.710938 C 163.449219 370.152344 166.441406 370.519531 169.441406 370.816406 C 172.441406 371.113281 175.445312 371.332031 178.457031 371.480469 C 181.46875 371.628906 184.480469 371.703125 187.496094 371.703125 C 190.511719 371.703125 193.523438 371.628906 196.535156 371.480469 C 199.546875 371.332031 202.550781 371.113281 205.550781 370.816406 C 208.550781 370.519531 211.542969 370.152344 214.523438 369.710938 C 217.507812 369.265625 220.476562 368.753906 223.433594 368.164062 C 226.390625 367.574219 229.332031 366.914062 232.253906 366.183594 C 235.179688 365.449219 238.085938 364.648438 240.96875 363.773438 C 243.855469 362.898438 246.714844 361.949219 249.554688 360.933594 C 252.390625 359.917969 255.203125 358.835938 257.988281 357.679688 C 260.773438 356.527344 263.53125 355.304688 266.253906 354.019531 C 268.980469 352.730469 271.671875 351.375 274.332031 349.953125 C 276.988281 348.53125 279.613281 347.046875 282.199219 345.496094 C 284.785156 343.945312 287.328125 342.332031 289.835938 340.660156 C 292.34375 338.984375 294.808594 337.25 297.226562 335.453125 C 299.648438 333.65625 302.027344 331.804688 304.355469 329.890625 C 306.6875 327.976562 308.96875 326.007812 311.203125 323.984375 C 313.4375 321.960938 315.617188 319.882812 317.75 317.75 C 319.882812 315.617188 321.960938 313.4375 323.984375 311.203125 C 326.007812 308.96875 327.976562 306.6875 329.890625 304.355469 C 331.804688 302.027344 333.65625 299.648438 335.453125 297.226562 C 337.25 294.808594 338.984375 292.34375 340.660156 289.835938 C 342.332031 287.328125 343.945312 284.785156 345.496094 282.199219 C 347.046875 279.613281 348.53125 276.988281 349.953125 274.332031 C 351.375 271.671875 352.730469 268.980469 354.019531 266.253906 C 355.304688 263.53125 356.527344 260.773438 357.679688 257.988281 C 358.835938 255.203125 359.917969 252.390625 360.933594 249.554688 C 361.949219 246.714844 362.898438 243.855469 363.773438 240.96875 C 364.648438 238.085938 365.449219 235.179688 366.183594 232.253906 C 366.914062 229.332031 367.574219 226.390625 368.164062 223.433594 C 368.753906 220.476562 369.265625 217.507812 369.710938 214.523438 C 370.152344 211.542969 370.519531 208.550781 370.816406 205.550781 C 371.113281 202.550781 371.332031 199.546875 371.480469 196.535156 C 371.628906 193.523438 371.703125 190.511719 371.703125 187.496094 C 371.703125 184.480469 371.628906 181.46875 371.480469 178.457031 C 371.332031 175.445312 371.113281 172.441406 370.816406 169.441406 C 370.519531 166.441406 370.152344 163.449219 369.710938 160.46875 C 369.265625 157.484375 368.753906 154.515625 368.164062 151.558594 C 367.574219 148.601562 366.914062 145.664062 366.183594 142.738281 C 365.449219 139.8125 364.648438 136.910156 363.773438 134.023438 C 362.898438 131.140625 361.949219 128.277344 360.933594 125.4375 C 359.917969 122.601562 358.835938 119.789062 357.679688 117.003906 C 356.527344 114.21875 355.304688 111.464844 354.019531 108.738281 C 352.730469 106.011719 351.375 103.320312 349.953125 100.660156 C 348.53125 98.003906 347.046875 95.382812 345.496094 92.796875 C 343.945312 90.210938 342.332031 87.664062 340.660156 85.15625 C 338.984375 82.648438 337.25 80.1875 335.453125 77.765625 C 333.65625 75.34375 331.804688 72.96875 329.890625 70.636719 C 327.976562 68.304688 326.007812 66.023438 323.984375 63.789062 C 321.960938 61.558594 319.882812 59.375 317.75 57.242188 C 315.617188 55.109375 313.4375 53.03125 311.203125 51.007812 C 308.96875 48.984375 306.6875 47.015625 304.355469 45.101562 C 302.027344 43.191406 299.648438 41.335938 297.226562 39.539062 C 294.808594 37.746094 292.34375 36.007812 289.835938 34.332031 C 287.328125 32.660156 284.785156 31.046875 282.199219 29.496094 C 279.613281 27.945312 276.988281 26.460938 274.332031 25.039062 C 271.671875 23.621094 268.980469 22.265625 266.253906 20.976562 C 263.53125 19.6875 260.773438 18.464844 257.988281 17.3125 C 255.203125 16.15625 252.390625 15.074219 249.554688 14.058594 C 246.714844 13.042969 243.855469 12.097656 240.96875 11.222656 C 238.085938 10.347656 235.179688 9.542969 232.253906 8.808594 C 229.332031 8.078125 226.390625 7.417969 223.433594 6.828125 C 220.476562 6.242188 217.507812 5.726562 214.523438 5.285156 C 211.542969 4.839844 208.550781 4.472656 205.550781 4.175781 C 202.550781 3.882812 199.546875 3.660156 196.535156 3.511719 C 193.523438 3.363281 190.511719 3.289062 187.496094 3.289062 Z M 296.347656 254.480469 C 296.34375 255.851562 296.277344 257.21875 296.140625 258.582031 C 296.003906 259.945312 295.804688 261.300781 295.535156 262.644531 C 295.265625 263.988281 294.933594 265.316406 294.535156 266.628906 C 294.136719 267.941406 293.675781 269.230469 293.148438 270.496094 C 292.625 271.761719 292.039062 273 291.390625 274.207031 C 290.746094 275.417969 290.039062 276.589844 289.277344 277.730469 C 288.515625 278.871094 287.699219 279.96875 286.832031 281.03125 C 285.960938 282.089844 285.042969 283.101562 284.074219 284.074219 C 283.101562 285.042969 282.089844 285.960938 281.03125 286.832031 C 279.96875 287.699219 278.871094 288.515625 277.730469 289.277344 C 276.589844 290.039062 275.417969 290.746094 274.207031 291.390625 C 273 292.039062 271.761719 292.625 270.496094 293.148438 C 269.230469 293.675781 267.941406 294.136719 266.628906 294.535156 C 265.316406 294.933594 263.988281 295.265625 262.644531 295.535156 C 261.300781 295.804688 259.945312 296.003906 258.582031 296.140625 C 257.21875 296.277344 255.851562 296.34375 254.480469 296.347656 L 120.511719 296.347656 C 119.140625 296.34375 117.773438 296.277344 116.410156 296.140625 C 115.046875 296.003906 113.691406 295.804688 112.347656 295.535156 C 111.003906 295.265625 109.675781 294.933594 108.363281 294.535156 C 107.050781 294.136719 105.761719 293.675781 104.496094 293.148438 C 103.230469 292.625 101.992188 292.039062 100.785156 291.390625 C 99.574219 290.746094 98.402344 290.039062 97.261719 289.277344 C 96.121094 288.515625 95.023438 287.699219 93.964844 286.832031 C 92.902344 285.960938 91.890625 285.042969 90.921875 284.074219 C 89.949219 283.105469 89.03125 282.089844 88.160156 281.03125 C 87.292969 279.96875 86.476562 278.871094 85.714844 277.730469 C 84.953125 276.589844 84.25 275.417969 83.601562 274.207031 C 82.953125 273 82.371094 271.761719 81.84375 270.496094 C 81.320312 269.230469 80.855469 267.941406 80.457031 266.628906 C 80.058594 265.316406 79.726562 263.988281 79.457031 262.644531 C 79.1875 261.300781 78.988281 259.949219 78.851562 258.582031 C 78.714844 257.21875 78.648438 255.851562 78.648438 254.480469 L 78.648438 154.003906 C 78.695312 153.351562 78.824219 152.714844 79.03125 152.09375 C 79.074219 151.6875 79.148438 151.289062 79.25 150.898438 L 79.296875 150.789062 L 79.328125 150.710938 L 104.320312 88.222656 C 105.089844 86.285156 105.996094 84.417969 107.042969 82.621094 C 108.085938 80.820312 109.261719 79.109375 110.566406 77.484375 C 111.867188 75.859375 113.285156 74.34375 114.816406 72.933594 C 116.347656 71.519531 117.972656 70.230469 119.699219 69.0625 C 121.421875 67.898438 123.222656 66.863281 125.101562 65.96875 C 126.980469 65.070312 128.914062 64.316406 130.90625 63.710938 C 132.898438 63.105469 134.921875 62.648438 136.984375 62.34375 C 139.042969 62.042969 141.113281 61.894531 143.195312 61.902344 L 231.796875 61.902344 C 233.878906 61.894531 235.949219 62.042969 238.011719 62.34375 C 240.070312 62.648438 242.09375 63.105469 244.085938 63.710938 C 246.078125 64.316406 248.011719 65.070312 249.890625 65.96875 C 251.769531 66.863281 253.570312 67.898438 255.296875 69.0625 C 257.019531 70.230469 258.648438 71.519531 260.175781 72.933594 C 261.707031 74.34375 263.125 75.859375 264.425781 77.484375 C 265.730469 79.109375 266.90625 80.820312 267.953125 82.621094 C 269 84.417969 269.90625 86.285156 270.671875 88.222656 L 295.667969 150.710938 L 295.699219 150.789062 L 295.742188 150.898438 C 295.84375 151.289062 295.917969 151.6875 295.960938 152.09375 C 296.167969 152.714844 296.296875 153.351562 296.347656 154.003906 Z M 296.347656 254.480469 " fill-opacity="1" fill-rule="nonzero"/></g><path fill="#ff5555" d="M 95.394531 254.480469 C 95.394531 255.304688 95.433594 256.125 95.515625 256.941406 C 95.597656 257.761719 95.71875 258.574219 95.878906 259.378906 C 96.042969 260.1875 96.242188 260.984375 96.480469 261.769531 C 96.71875 262.554688 96.996094 263.328125 97.3125 264.089844 C 97.628906 264.847656 97.980469 265.589844 98.367188 266.316406 C 98.753906 267.042969 99.179688 267.746094 99.636719 268.429688 C 100.09375 269.113281 100.582031 269.773438 101.101562 270.410156 C 101.625 271.042969 102.175781 271.652344 102.757812 272.234375 C 103.339844 272.816406 103.949219 273.367188 104.585938 273.890625 C 105.21875 274.410156 105.878906 274.902344 106.5625 275.359375 C 107.246094 275.816406 107.953125 276.238281 108.675781 276.625 C 109.402344 277.011719 110.144531 277.363281 110.902344 277.679688 C 111.664062 277.996094 112.4375 278.273438 113.222656 278.511719 C 114.011719 278.75 114.808594 278.953125 115.613281 279.113281 C 116.421875 279.273438 117.234375 279.394531 118.050781 279.476562 C 118.871094 279.558594 119.691406 279.597656 120.511719 279.601562 L 254.480469 279.601562 C 255.304688 279.597656 256.125 279.558594 256.941406 279.476562 C 257.761719 279.394531 258.574219 279.273438 259.378906 279.113281 C 260.1875 278.953125 260.984375 278.75 261.769531 278.511719 C 262.554688 278.273438 263.328125 277.996094 264.089844 277.679688 C 264.847656 277.363281 265.589844 277.011719 266.316406 276.625 C 267.042969 276.238281 267.746094 275.816406 268.429688 275.359375 C 269.113281 274.902344 269.773438 274.410156 270.410156 273.890625 C 271.042969 273.367188 271.652344 272.816406 272.234375 272.234375 C 272.816406 271.652344 273.367188 271.042969 273.890625 270.410156 C 274.410156 269.773438 274.902344 269.113281 275.359375 268.429688 C 275.816406 267.746094 276.238281 267.042969 276.625 266.316406 C 277.011719 265.589844 277.363281 264.847656 277.679688 264.089844 C 277.996094 263.328125 278.273438 262.554688 278.511719 261.769531 C 278.75 260.984375 278.953125 260.1875 279.113281 259.378906 C 279.273438 258.574219 279.394531 257.761719 279.476562 256.941406 C 279.558594 256.125 279.597656 255.304688 279.601562 254.480469 L 279.601562 162.378906 L 95.394531 162.378906 Z M 152.269531 197.601562 C 151.894531 197.210938 151.558594 196.789062 151.261719 196.332031 C 150.964844 195.875 150.71875 195.394531 150.515625 194.890625 C 150.316406 194.382812 150.164062 193.863281 150.0625 193.332031 C 149.964844 192.796875 149.917969 192.257812 149.921875 191.714844 C 149.925781 191.167969 149.984375 190.632812 150.09375 190.097656 C 150.203125 189.566406 150.363281 189.050781 150.570312 188.546875 C 150.78125 188.046875 151.039062 187.570312 151.34375 187.117188 C 151.644531 186.667969 151.988281 186.25 152.375 185.867188 C 152.757812 185.480469 153.175781 185.136719 153.625 184.835938 C 154.078125 184.53125 154.554688 184.273438 155.054688 184.0625 C 155.558594 183.855469 156.074219 183.695312 156.605469 183.585938 C 157.140625 183.476562 157.675781 183.417969 158.222656 183.414062 C 158.765625 183.410156 159.304688 183.457031 159.839844 183.554688 C 160.371094 183.65625 160.890625 183.808594 161.398438 184.007812 C 161.902344 184.210938 162.382812 184.457031 162.839844 184.753906 C 163.296875 185.050781 163.71875 185.386719 164.109375 185.761719 L 187.496094 209.148438 L 210.882812 185.761719 C 211.273438 185.386719 211.699219 185.050781 212.152344 184.753906 C 212.609375 184.457031 213.089844 184.210938 213.597656 184.007812 C 214.101562 183.808594 214.621094 183.65625 215.15625 183.554688 C 215.6875 183.457031 216.226562 183.410156 216.773438 183.414062 C 217.316406 183.417969 217.855469 183.476562 218.386719 183.585938 C 218.917969 183.695312 219.4375 183.855469 219.9375 184.0625 C 220.4375 184.273438 220.914062 184.53125 221.367188 184.835938 C 221.816406 185.136719 222.234375 185.480469 222.621094 185.867188 C 223.003906 186.25 223.347656 186.667969 223.652344 187.117188 C 223.953125 187.570312 224.210938 188.046875 224.421875 188.546875 C 224.632812 189.050781 224.789062 189.566406 224.902344 190.097656 C 225.011719 190.632812 225.066406 191.167969 225.070312 191.714844 C 225.078125 192.257812 225.027344 192.796875 224.929688 193.332031 C 224.828125 193.863281 224.675781 194.382812 224.476562 194.890625 C 224.273438 195.394531 224.027344 195.875 223.730469 196.332031 C 223.4375 196.789062 223.097656 197.210938 222.722656 197.601562 L 199.335938 220.988281 L 222.722656 244.375 C 223.121094 244.761719 223.480469 245.183594 223.796875 245.640625 C 224.109375 246.097656 224.378906 246.582031 224.597656 247.09375 C 224.816406 247.601562 224.984375 248.128906 225.097656 248.675781 C 225.214844 249.21875 225.273438 249.769531 225.277344 250.324219 C 225.28125 250.878906 225.234375 251.429688 225.128906 251.976562 C 225.023438 252.523438 224.863281 253.054688 224.65625 253.566406 C 224.445312 254.082031 224.183594 254.570312 223.878906 255.035156 C 223.570312 255.496094 223.21875 255.925781 222.824219 256.316406 C 222.433594 256.710938 222.003906 257.0625 221.542969 257.367188 C 221.078125 257.675781 220.589844 257.9375 220.074219 258.148438 C 219.5625 258.355469 219.03125 258.515625 218.484375 258.621094 C 217.9375 258.726562 217.386719 258.773438 216.832031 258.769531 C 216.277344 258.765625 215.726562 258.707031 215.183594 258.589844 C 214.636719 258.476562 214.109375 258.308594 213.601562 258.089844 C 213.089844 257.871094 212.605469 257.601562 212.148438 257.289062 C 211.691406 256.972656 211.269531 256.613281 210.882812 256.214844 L 187.496094 232.828125 L 164.109375 256.214844 C 163.71875 256.589844 163.296875 256.929688 162.839844 257.222656 C 162.382812 257.519531 161.902344 257.765625 161.398438 257.96875 C 160.890625 258.167969 160.371094 258.320312 159.839844 258.421875 C 159.304688 258.519531 158.765625 258.570312 158.222656 258.5625 C 157.675781 258.558594 157.140625 258.503906 156.605469 258.394531 C 156.074219 258.28125 155.558594 258.125 155.054688 257.914062 C 154.554688 257.703125 154.078125 257.445312 153.625 257.144531 C 153.175781 256.839844 152.757812 256.496094 152.375 256.113281 C 151.988281 255.726562 151.644531 255.308594 151.34375 254.859375 C 151.039062 254.40625 150.78125 253.929688 150.570312 253.429688 C 150.363281 252.929688 150.203125 252.410156 150.09375 251.878906 C 149.984375 251.347656 149.925781 250.808594 149.921875 250.265625 C 149.917969 249.71875 149.964844 249.179688 150.0625 248.648438 C 150.164062 248.113281 150.316406 247.59375 150.515625 247.089844 C 150.71875 246.582031 150.964844 246.101562 151.261719 245.644531 C 151.558594 245.191406 151.894531 244.765625 152.269531 244.375 L 175.65625 220.988281 Z M 152.269531 197.601562 " fill-opacity="1" fill-rule="nonzero"/><path fill="#ff5555" d="M 179.125 78.648438 L 143.195312 78.648438 C 141.945312 78.644531 140.703125 78.730469 139.464844 78.914062 C 138.230469 79.097656 137.015625 79.367188 135.820312 79.734375 C 134.625 80.097656 133.464844 80.546875 132.335938 81.085938 C 131.207031 81.625 130.125 82.246094 129.09375 82.945312 C 128.058594 83.644531 127.082031 84.417969 126.160156 85.265625 C 125.242188 86.109375 124.390625 87.019531 123.609375 87.996094 C 122.828125 88.96875 122.121094 89.996094 121.492188 91.074219 C 120.863281 92.15625 120.316406 93.277344 119.855469 94.4375 L 99.378906 145.632812 L 179.125 145.632812 Z M 179.125 78.648438 " fill-opacity="1" fill-rule="nonzero"/><path fill="#ff5555" d="M 255.136719 94.4375 C 254.675781 93.277344 254.128906 92.15625 253.5 91.074219 C 252.871094 89.996094 252.167969 88.96875 251.382812 87.996094 C 250.601562 87.019531 249.75 86.109375 248.832031 85.265625 C 247.914062 84.417969 246.9375 83.644531 245.902344 82.945312 C 244.867188 82.246094 243.785156 81.625 242.65625 81.085938 C 241.53125 80.546875 240.367188 80.097656 239.171875 79.734375 C 237.976562 79.367188 236.761719 79.097656 235.527344 78.914062 C 234.289062 78.730469 233.046875 78.644531 231.796875 78.648438 L 195.871094 78.648438 L 195.871094 145.632812 L 275.613281 145.632812 Z M 255.136719 94.4375 " fill-opacity="1" fill-rule="nonzero"/></svg>