<svg xmlns="http://www.w3.org/2000/svg" xmlns:xlink="http://www.w3.org/1999/xlink" width="500" zoomAndPan="magnify" viewBox="0 0 375 374.999991" height="500" preserveAspectRatio="xMidYMid meet" version="1.0"><defs><clipPath id="21e2ad196c"><path d="M 42 92 L 372.550781 92 L 372.550781 309 L 42 309 Z M 42 92 " clip-rule="nonzero"/></clipPath><clipPath id="b6081ca1ea"><path d="M 99 269 L 174 269 L 174 344.238281 L 99 344.238281 Z M 99 269 " clip-rule="nonzero"/></clipPath><clipPath id="1e19fe0e55"><path d="M 241 269 L 316 269 L 316 344.238281 L 241 344.238281 Z M 241 269 " clip-rule="nonzero"/></clipPath><clipPath id="9098cdcf54"><path d="M 2.800781 30.738281 L 138 30.738281 L 138 166 L 2.800781 166 Z M 2.800781 30.738281 " clip-rule="nonzero"/></clipPath></defs><g clip-path="url(#21e2ad196c)"><path fill="#095d40" d="M 273.976562 166.105469 L 303.578125 166.105469 C 307.179688 166.132812 307.496094 166.199219 308.394531 169.582031 L 316.636719 202.34375 C 318.242188 209.273438 318.511719 209.539062 311.628906 209.539062 L 274.808594 209.539062 C 270.015625 209.539062 268.820312 209.695312 268.820312 203.003906 L 268.820312 171.726562 C 268.820312 166.398438 269.894531 166.105469 273.976562 166.105469 Z M 157.667969 92.09375 C 157.792969 94.109375 157.960938 96.132812 157.960938 98.179688 C 157.960938 146.628906 118.683594 185.902344 70.230469 185.902344 C 60.59375 185.902344 51.359375 184.277344 42.695312 181.40625 L 42.695312 288.867188 C 42.695312 299.539062 50.019531 308.148438 59.136719 308.148438 L 87.644531 308.148438 L 87.59375 306.980469 C 87.59375 279.964844 109.484375 258.074219 136.507812 258.074219 C 163.511719 258.074219 185.421875 279.964844 185.421875 306.980469 C 185.398438 307.375 185.371094 307.765625 185.351562 308.148438 L 229.617188 308.148438 L 229.570312 306.980469 C 229.570312 279.964844 251.460938 258.074219 278.488281 258.074219 C 305.484375 258.074219 327.371094 279.964844 327.371094 306.980469 C 327.371094 307.375 327.347656 307.765625 327.320312 308.148438 L 358.019531 308.148438 C 365.925781 308.148438 372.273438 300.6875 372.273438 291.441406 L 372.273438 263.910156 C 372.273438 249.65625 367.699219 239.46875 360.304688 231.167969 L 341.289062 209.859375 L 329.613281 159.902344 C 327.179688 147.546875 321.246094 143.242188 308.039062 143.242188 L 257.578125 143.242188 L 257.578125 107.269531 C 257.578125 96.597656 250.230469 92.09375 241.117188 92.09375 Z M 157.667969 92.09375 " fill-opacity="1" fill-rule="nonzero"/></g><g clip-path="url(#b6081ca1ea)"><path fill="#095d40" d="M 136.503906 320.988281 C 144.238281 320.988281 150.515625 314.710938 150.515625 306.976562 C 150.515625 299.242188 144.238281 292.96875 136.503906 292.96875 C 128.769531 292.96875 122.496094 299.242188 122.496094 306.976562 C 122.496094 314.710938 128.769531 320.988281 136.503906 320.988281 Z M 136.503906 344.335938 C 115.878906 344.335938 99.144531 327.609375 99.144531 306.976562 C 99.144531 286.355469 115.878906 269.617188 136.503906 269.617188 C 146.410156 269.617188 155.914062 273.558594 162.917969 280.5625 C 169.921875 287.570312 173.863281 297.082031 173.863281 306.976562 C 173.863281 327.609375 157.125 344.335938 136.503906 344.335938 Z M 136.503906 344.335938 " fill-opacity="1" fill-rule="nonzero"/></g><g clip-path="url(#1e19fe0e55)"><path fill="#095d40" d="M 278.476562 292.96875 C 286.210938 292.96875 292.488281 299.242188 292.488281 306.976562 C 292.488281 314.710938 286.210938 320.988281 278.476562 320.988281 C 270.734375 320.988281 264.46875 314.710938 264.46875 306.976562 C 264.46875 299.242188 270.734375 292.96875 278.476562 292.96875 Z M 278.476562 269.617188 C 257.851562 269.617188 241.136719 286.355469 241.117188 306.976562 C 241.117188 316.882812 245.050781 326.386719 252.054688 333.390625 C 259.058594 340.394531 268.578125 344.335938 278.476562 344.335938 C 288.394531 344.335938 297.886719 340.394531 304.890625 333.390625 C 311.921875 326.386719 315.835938 316.882812 315.835938 306.976562 C 315.835938 286.355469 299.125 269.617188 278.476562 269.617188 Z M 278.476562 269.617188 " fill-opacity="1" fill-rule="nonzero"/></g><g clip-path="url(#9098cdcf54)"><path fill="#095d40" d="M 104.011719 67.5 L 109.292969 72.785156 C 111.773438 75.261719 111.449219 79.539062 108.605469 82.417969 L 62.253906 128.78125 C 60.015625 131.015625 55.734375 131.179688 53.324219 128.78125 L 31.875 107.316406 C 29.003906 104.453125 28.710938 100.175781 31.171875 97.683594 L 36.441406 92.4375 C 38.925781 89.949219 43.203125 90.265625 46.078125 93.117188 L 57.773438 104.847656 L 94.40625 68.214844 C 98.074219 64.535156 101 64.464844 104.011719 67.5 Z M 70.226562 30.945312 C 33.109375 30.945312 2.996094 61.035156 2.996094 98.171875 C 2.996094 135.3125 33.109375 165.394531 70.226562 165.394531 C 107.367188 165.394531 137.480469 135.316406 137.480469 98.171875 C 137.480469 61.027344 107.367188 30.945312 70.226562 30.945312 Z M 70.226562 30.945312 " fill-opacity="1" fill-rule="nonzero"/></g></svg>