<svg xmlns="http://www.w3.org/2000/svg" xmlns:xlink="http://www.w3.org/1999/xlink" width="25" zoomAndPan="magnify" viewBox="0 0 750 749.999995" height="25" preserveAspectRatio="xMidYMid meet" version="1.0"><defs><clipPath id="06fc3b88d5"><path d="M 17 69 L 733 69 L 733 694.160156 L 17 694.160156 Z M 17 69 " clip-rule="nonzero"/></clipPath></defs><g clip-path="url(#06fc3b88d5)"><path fill="#000000" d="M 374.726562 694.015625 C 369.921875 693.984375 366.804688 691.273438 366.089844 690.621094 L 88.683594 413.183594 C 22.65625 353.425781 -0.0507812 262.347656 30.722656 186.730469 C 66.582031 98.605469 157.117188 75.613281 163.214844 74.1875 C 241.003906 56.03125 324.136719 89.855469 374.8125 158.863281 C 425.488281 89.855469 508.636719 56.035156 586.410156 74.1875 C 590.320312 75.101562 682.621094 97.5625 718.902344 186.730469 C 749.910156 262.941406 726.609375 353.910156 660.9375 413.183594 L 383.53125 690.621094 C 382.835938 691.257812 379.640625 694.046875 374.726562 694.015625 Z M 168.136719 95.292969 C 163.003906 96.492188 82.597656 116.726562 50.792969 194.898438 C 23.179688 262.761719 44.320312 344.089844 103.394531 397.269531 L 103.804688 397.660156 L 374.8125 668.695312 L 646.019531 397.457031 L 646.230469 397.269531 C 705.304688 344.089844 726.441406 262.761719 698.832031 194.898438 C 666.730469 116 584.953125 96.101562 581.484375 95.292969 C 507.773438 78.085938 428.402344 113.683594 383.964844 183.867188 L 374.8125 198.324219 L 365.65625 183.867188 C 321.226562 113.257812 241.191406 78.195312 168.136719 95.292969 Z M 168.136719 95.292969 " fill-opacity="1" fill-rule="nonzero"/></g></svg>