<svg xmlns="http://www.w3.org/2000/svg" xmlns:xlink="http://www.w3.org/1999/xlink" width="1086" zoomAndPan="magnify" viewBox="0 0 814.5 168.749997" height="225" preserveAspectRatio="xMidYMid meet" version="1.0"><defs><g/></defs><g fill="#101010" fill-opacity="1"><g transform="translate(30.326824, 115.978126)"><g><path d="M 10.9375 -0.890625 C 10.9375 -1.09375 10.9375 -1.367188 10.9375 -1.640625 Z M 44.4375 0 L 44.4375 -61.527344 C 29.601562 -61.527344 14.972656 -45.667969 10.9375 -31.105469 L 10.9375 -61.527344 L 4.101562 -61.527344 L 4.101562 0 L 10.9375 0 L 10.9375 -5.46875 C 11.828125 -23.925781 22.628906 -48.8125 37.601562 -52.914062 L 37.601562 0 Z M 44.4375 0 "/></g></g></g><g fill="#101010" fill-opacity="1"><g transform="translate(82.748967, 116.149449)"><g><path d="M 44.515625 -6.59375 L 44.46875 0 L 7.640625 0 L 7.640625 -59.78125 L 44.46875 -59.78125 L 44.46875 -53.1875 L 15.734375 -53.1875 L 15.734375 -33.328125 L 39 -33.328125 L 39 -26.984375 L 15.734375 -26.984375 L 15.734375 -6.59375 Z M 44.515625 -6.59375 "/></g></g></g><g fill="#101010" fill-opacity="1"><g transform="translate(134.273075, 116.149449)"><g><path d="M 49.609375 -12.34375 C 50.046875 -12.34375 50.429688 -12.164062 50.765625 -11.8125 L 53.984375 -8.34375 C 51.535156 -5.507812 48.566406 -3.296875 45.078125 -1.703125 C 41.585938 -0.117188 37.367188 0.671875 32.421875 0.671875 C 28.128906 0.671875 24.234375 -0.0703125 20.734375 -1.5625 C 17.234375 -3.050781 14.242188 -5.132812 11.765625 -7.8125 C 9.285156 -10.5 7.363281 -13.71875 6 -17.46875 C 4.644531 -21.226562 3.96875 -25.363281 3.96875 -29.875 C 3.96875 -34.375 4.675781 -38.5 6.09375 -42.25 C 7.507812 -46.007812 9.503906 -49.238281 12.078125 -51.9375 C 14.648438 -54.632812 17.726562 -56.726562 21.3125 -58.21875 C 24.90625 -59.707031 28.867188 -60.453125 33.203125 -60.453125 C 37.460938 -60.453125 41.21875 -59.769531 44.46875 -58.40625 C 47.726562 -57.039062 50.59375 -55.191406 53.0625 -52.859375 L 50.390625 -49.140625 C 50.222656 -48.867188 50.007812 -48.640625 49.75 -48.453125 C 49.488281 -48.273438 49.132812 -48.1875 48.6875 -48.1875 C 48.1875 -48.1875 47.570312 -48.457031 46.84375 -49 C 46.125 -49.539062 45.179688 -50.144531 44.015625 -50.8125 C 42.847656 -51.476562 41.382812 -52.082031 39.625 -52.625 C 37.875 -53.164062 35.722656 -53.4375 33.171875 -53.4375 C 30.078125 -53.4375 27.25 -52.898438 24.6875 -51.828125 C 22.132812 -50.765625 19.929688 -49.21875 18.078125 -47.1875 C 16.234375 -45.15625 14.796875 -42.675781 13.765625 -39.75 C 12.734375 -36.832031 12.21875 -33.539062 12.21875 -29.875 C 12.21875 -26.144531 12.753906 -22.816406 13.828125 -19.890625 C 14.898438 -16.972656 16.359375 -14.503906 18.203125 -12.484375 C 20.054688 -10.472656 22.238281 -8.9375 24.75 -7.875 C 27.269531 -6.820312 29.992188 -6.296875 32.921875 -6.296875 C 34.703125 -6.296875 36.304688 -6.398438 37.734375 -6.609375 C 39.171875 -6.816406 40.492188 -7.144531 41.703125 -7.59375 C 42.910156 -8.039062 44.035156 -8.601562 45.078125 -9.28125 C 46.117188 -9.957031 47.15625 -10.769531 48.1875 -11.71875 C 48.65625 -12.132812 49.128906 -12.34375 49.609375 -12.34375 Z M 49.609375 -12.34375 "/></g></g></g><g fill="#101010" fill-opacity="1"><g transform="translate(193.348493, 116.149449)"><g><path d="M 56.0625 -59.78125 L 56.0625 0 L 47.96875 0 L 47.96875 -27.203125 L 15.734375 -27.203125 L 15.734375 0 L 7.640625 0 L 7.640625 -59.78125 L 15.734375 -59.78125 L 15.734375 -33.125 L 47.96875 -33.125 L 47.96875 -59.78125 Z M 56.0625 -59.78125 "/></g></g></g><g fill="#101010" fill-opacity="1"><g transform="translate(260.39241, 116.149449)"><g><path d="M 69.84375 -59.78125 L 69.84375 0 L 62.75 0 L 62.75 -43.9375 C 62.75 -44.519531 62.769531 -45.144531 62.8125 -45.8125 C 62.851562 -46.476562 62.898438 -47.15625 62.953125 -47.84375 L 42.421875 -10.46875 C 41.785156 -9.21875 40.8125 -8.59375 39.5 -8.59375 L 38.34375 -8.59375 C 37.03125 -8.59375 36.054688 -9.21875 35.421875 -10.46875 L 14.46875 -48.015625 C 14.644531 -46.546875 14.734375 -45.1875 14.734375 -43.9375 L 14.734375 0 L 7.640625 0 L 7.640625 -59.78125 L 13.59375 -59.78125 C 14.320312 -59.78125 14.878906 -59.707031 15.265625 -59.5625 C 15.660156 -59.425781 16.035156 -59.039062 16.390625 -58.40625 L 37.046875 -21.609375 C 37.378906 -20.941406 37.703125 -20.242188 38.015625 -19.515625 C 38.335938 -18.796875 38.640625 -18.0625 38.921875 -17.3125 C 39.203125 -18.0625 39.492188 -18.804688 39.796875 -19.546875 C 40.109375 -20.285156 40.441406 -20.988281 40.796875 -21.65625 L 61.078125 -58.40625 C 61.410156 -59.039062 61.773438 -59.425781 62.171875 -59.5625 C 62.578125 -59.707031 63.144531 -59.78125 63.875 -59.78125 Z M 69.84375 -59.78125 "/></g></g></g><g fill="#101010" fill-opacity="1"><g transform="translate(341.20389, 116.149449)"><g><path d="M 39.375 -22.1875 L 30 -46.515625 C 29.71875 -47.234375 29.421875 -48.070312 29.109375 -49.03125 C 28.804688 -50 28.519531 -51.023438 28.25 -52.109375 C 27.664062 -49.859375 27.066406 -47.976562 26.453125 -46.46875 L 17.0625 -22.1875 Z M 56.234375 0 L 49.984375 0 C 49.253906 0 48.664062 -0.175781 48.21875 -0.53125 C 47.78125 -0.894531 47.445312 -1.359375 47.21875 -1.921875 L 41.640625 -16.359375 L 14.8125 -16.359375 L 9.21875 -1.921875 C 9.050781 -1.421875 8.726562 -0.972656 8.25 -0.578125 C 7.78125 -0.191406 7.203125 0 6.515625 0 L 0.25 0 L 24.15625 -59.78125 L 32.328125 -59.78125 Z M 56.234375 0 "/></g></g></g><g fill="#101010" fill-opacity="1"><g transform="translate(401.036582, 116.149449)"><g/></g></g><g fill="#101010" fill-opacity="1"><g transform="translate(425.734788, 116.149449)"><g/></g></g><g fill="#101010" fill-opacity="1"><g transform="translate(450.434034, 116.149449)"><g><path d="M 38.21875 -50.4375 C 37.96875 -50.019531 37.695312 -49.707031 37.40625 -49.5 C 37.113281 -49.289062 36.757812 -49.1875 36.34375 -49.1875 C 35.863281 -49.1875 35.300781 -49.421875 34.65625 -49.890625 C 34.019531 -50.367188 33.222656 -50.890625 32.265625 -51.453125 C 31.304688 -52.023438 30.148438 -52.546875 28.796875 -53.015625 C 27.453125 -53.492188 25.820312 -53.734375 23.90625 -53.734375 C 22.09375 -53.734375 20.5 -53.488281 19.125 -53 C 17.75 -52.519531 16.59375 -51.859375 15.65625 -51.015625 C 14.726562 -50.179688 14.023438 -49.203125 13.546875 -48.078125 C 13.078125 -46.953125 12.84375 -45.738281 12.84375 -44.4375 C 12.84375 -42.757812 13.253906 -41.367188 14.078125 -40.265625 C 14.898438 -39.171875 15.984375 -38.234375 17.328125 -37.453125 C 18.679688 -36.679688 20.210938 -36.007812 21.921875 -35.4375 C 23.628906 -34.863281 25.378906 -34.269531 27.171875 -33.65625 C 28.972656 -33.050781 30.726562 -32.363281 32.4375 -31.59375 C 34.144531 -30.832031 35.671875 -29.867188 37.015625 -28.703125 C 38.367188 -27.535156 39.457031 -26.101562 40.28125 -24.40625 C 41.101562 -22.707031 41.515625 -20.617188 41.515625 -18.140625 C 41.515625 -15.523438 41.066406 -13.070312 40.171875 -10.78125 C 39.285156 -8.488281 37.984375 -6.492188 36.265625 -4.796875 C 34.554688 -3.097656 32.457031 -1.757812 29.96875 -0.78125 C 27.476562 0.1875 24.648438 0.671875 21.484375 0.671875 C 17.585938 0.671875 14.050781 -0.03125 10.875 -1.4375 C 7.707031 -2.84375 5 -4.742188 2.75 -7.140625 L 5.09375 -10.96875 C 5.3125 -11.28125 5.582031 -11.539062 5.90625 -11.75 C 6.226562 -11.957031 6.582031 -12.0625 6.96875 -12.0625 C 7.332031 -12.0625 7.742188 -11.914062 8.203125 -11.625 C 8.660156 -11.332031 9.179688 -10.960938 9.765625 -10.515625 C 10.347656 -10.066406 11.015625 -9.578125 11.765625 -9.046875 C 12.515625 -8.523438 13.367188 -8.039062 14.328125 -7.59375 C 15.285156 -7.144531 16.375 -6.773438 17.59375 -6.484375 C 18.820312 -6.191406 20.203125 -6.046875 21.734375 -6.046875 C 23.648438 -6.046875 25.359375 -6.3125 26.859375 -6.84375 C 28.367188 -7.375 29.644531 -8.117188 30.6875 -9.078125 C 31.726562 -10.035156 32.523438 -11.179688 33.078125 -12.515625 C 33.640625 -13.847656 33.921875 -15.335938 33.921875 -16.984375 C 33.921875 -18.785156 33.507812 -20.265625 32.6875 -21.421875 C 31.863281 -22.578125 30.785156 -23.539062 29.453125 -24.3125 C 28.117188 -25.09375 26.585938 -25.753906 24.859375 -26.296875 C 23.140625 -26.835938 21.390625 -27.394531 19.609375 -27.96875 C 17.828125 -28.539062 16.070312 -29.203125 14.34375 -29.953125 C 12.625 -30.703125 11.097656 -31.675781 9.765625 -32.875 C 8.429688 -34.070312 7.351562 -35.566406 6.53125 -37.359375 C 5.707031 -39.148438 5.296875 -41.367188 5.296875 -44.015625 C 5.296875 -46.128906 5.707031 -48.171875 6.53125 -50.140625 C 7.351562 -52.117188 8.546875 -53.875 10.109375 -55.40625 C 11.679688 -56.9375 13.613281 -58.160156 15.90625 -59.078125 C 18.207031 -59.992188 20.847656 -60.453125 23.828125 -60.453125 C 27.160156 -60.453125 30.195312 -59.921875 32.9375 -58.859375 C 35.675781 -57.804688 38.085938 -56.28125 40.171875 -54.28125 Z M 38.21875 -50.4375 "/></g></g></g><g fill="#101010" fill-opacity="1"><g transform="translate(499.03775, 116.149449)"><g><path d="M 48.0625 -52.984375 L 28.703125 -52.984375 L 28.703125 0 L 20.65625 0 L 20.65625 -52.984375 L 1.25 -52.984375 L 1.25 -59.78125 L 48.0625 -59.78125 Z M 48.0625 -52.984375 "/></g></g></g><g fill="#101010" fill-opacity="1"><g transform="translate(551.646578, 116.149449)"><g><path d="M 30.703125 -6.421875 C 33.179688 -6.421875 35.394531 -6.835938 37.34375 -7.671875 C 39.289062 -8.503906 40.9375 -9.671875 42.28125 -11.171875 C 43.632812 -12.679688 44.664062 -14.476562 45.375 -16.5625 C 46.082031 -18.644531 46.4375 -20.941406 46.4375 -23.453125 L 46.4375 -59.78125 L 54.484375 -59.78125 L 54.484375 -23.453125 C 54.484375 -19.992188 53.929688 -16.789062 52.828125 -13.84375 C 51.734375 -10.894531 50.164062 -8.34375 48.125 -6.1875 C 46.082031 -4.039062 43.585938 -2.351562 40.640625 -1.125 C 37.691406 0.09375 34.378906 0.703125 30.703125 0.703125 C 27.035156 0.703125 23.726562 0.09375 20.78125 -1.125 C 17.832031 -2.351562 15.328125 -4.039062 13.265625 -6.1875 C 11.203125 -8.34375 9.625 -10.894531 8.53125 -13.84375 C 7.4375 -16.789062 6.890625 -19.992188 6.890625 -23.453125 L 6.890625 -59.78125 L 14.9375 -59.78125 L 14.9375 -23.484375 C 14.9375 -20.984375 15.289062 -18.6875 16 -16.59375 C 16.707031 -14.507812 17.734375 -12.71875 19.078125 -11.21875 C 20.429688 -9.71875 22.085938 -8.539062 24.046875 -7.6875 C 26.003906 -6.84375 28.222656 -6.421875 30.703125 -6.421875 Z M 30.703125 -6.421875 "/></g></g></g><g fill="#101010" fill-opacity="1"><g transform="translate(616.354185, 116.149449)"><g><path d="M 59.453125 -29.875 C 59.453125 -25.394531 58.738281 -21.316406 57.3125 -17.640625 C 55.894531 -13.972656 53.894531 -10.832031 51.3125 -8.21875 C 48.726562 -5.601562 45.617188 -3.578125 41.984375 -2.140625 C 38.359375 -0.710938 34.347656 0 29.953125 0 L 7.640625 0 L 7.640625 -59.78125 L 29.953125 -59.78125 C 34.347656 -59.78125 38.359375 -59.0625 41.984375 -57.625 C 45.617188 -56.195312 48.726562 -54.164062 51.3125 -51.53125 C 53.894531 -48.90625 55.894531 -45.757812 57.3125 -42.09375 C 58.738281 -38.425781 59.453125 -34.351562 59.453125 -29.875 Z M 51.140625 -29.875 C 51.140625 -33.539062 50.640625 -36.820312 49.640625 -39.71875 C 48.640625 -42.613281 47.222656 -45.0625 45.390625 -47.0625 C 43.554688 -49.0625 41.332031 -50.585938 38.71875 -51.640625 C 36.101562 -52.703125 33.179688 -53.234375 29.953125 -53.234375 L 15.734375 -53.234375 L 15.734375 -6.546875 L 29.953125 -6.546875 C 33.179688 -6.546875 36.101562 -7.070312 38.71875 -8.125 C 41.332031 -9.1875 43.554688 -10.710938 45.390625 -12.703125 C 47.222656 -14.691406 48.640625 -17.128906 49.640625 -20.015625 C 50.640625 -22.910156 51.140625 -26.195312 51.140625 -29.875 Z M 51.140625 -29.875 "/></g></g></g><g fill="#101010" fill-opacity="1"><g transform="translate(683.147785, 116.149449)"><g><path d="M 15.734375 0 L 7.640625 0 L 7.640625 -59.78125 L 15.734375 -59.78125 Z M 15.734375 0 "/></g></g></g><g fill="#101010" fill-opacity="1"><g transform="translate(709.848547, 116.149449)"><g><path d="M 62.875 -29.875 C 62.875 -25.394531 62.160156 -21.285156 60.734375 -17.546875 C 59.316406 -13.804688 57.316406 -10.585938 54.734375 -7.890625 C 52.148438 -5.191406 49.039062 -3.097656 45.40625 -1.609375 C 41.78125 -0.117188 37.769531 0.625 33.375 0.625 C 28.976562 0.625 24.972656 -0.117188 21.359375 -1.609375 C 17.742188 -3.097656 14.640625 -5.191406 12.046875 -7.890625 C 9.460938 -10.585938 7.460938 -13.804688 6.046875 -17.546875 C 4.628906 -21.285156 3.921875 -25.394531 3.921875 -29.875 C 3.921875 -34.351562 4.628906 -38.460938 6.046875 -42.203125 C 7.460938 -45.941406 9.460938 -49.164062 12.046875 -51.875 C 14.640625 -54.582031 17.742188 -56.6875 21.359375 -58.1875 C 24.972656 -59.695312 28.976562 -60.453125 33.375 -60.453125 C 37.769531 -60.453125 41.78125 -59.695312 45.40625 -58.1875 C 49.039062 -56.6875 52.148438 -54.582031 54.734375 -51.875 C 57.316406 -49.164062 59.316406 -45.941406 60.734375 -42.203125 C 62.160156 -38.460938 62.875 -34.351562 62.875 -29.875 Z M 54.5625 -29.875 C 54.5625 -33.539062 54.0625 -36.832031 53.0625 -39.75 C 52.0625 -42.675781 50.644531 -45.144531 48.8125 -47.15625 C 46.976562 -49.175781 44.753906 -50.726562 42.140625 -51.8125 C 39.523438 -52.894531 36.601562 -53.4375 33.375 -53.4375 C 30.175781 -53.4375 27.269531 -52.894531 24.65625 -51.8125 C 22.039062 -50.726562 19.804688 -49.175781 17.953125 -47.15625 C 16.109375 -45.144531 14.6875 -42.675781 13.6875 -39.75 C 12.6875 -36.832031 12.1875 -33.539062 12.1875 -29.875 C 12.1875 -26.195312 12.6875 -22.90625 13.6875 -20 C 14.6875 -17.09375 16.109375 -14.628906 17.953125 -12.609375 C 19.804688 -10.597656 22.039062 -9.054688 24.65625 -7.984375 C 27.269531 -6.921875 30.175781 -6.390625 33.375 -6.390625 C 36.601562 -6.390625 39.523438 -6.921875 42.140625 -7.984375 C 44.753906 -9.054688 46.976562 -10.597656 48.8125 -12.609375 C 50.644531 -14.628906 52.0625 -17.09375 53.0625 -20 C 54.0625 -22.90625 54.5625 -26.195312 54.5625 -29.875 Z M 54.5625 -29.875 "/></g></g></g></svg>