<svg xmlns="http://www.w3.org/2000/svg" xmlns:xlink="http://www.w3.org/1999/xlink" width="139" zoomAndPan="magnify" viewBox="0 0 104.25 44.249999" height="59" preserveAspectRatio="xMidYMid meet" version="1.0"><defs><g/></defs><g fill="#101010" fill-opacity="1"><g transform="translate(10.851797, 27.694292)"><g><path d="M 3.324219 -0.269531 C 3.324219 -0.332031 3.324219 -0.414062 3.324219 -0.5 Z M 13.507812 0 L 13.507812 -18.703125 C 8.996094 -18.703125 4.550781 -13.882812 3.324219 -9.453125 L 3.324219 -18.703125 L 1.246094 -18.703125 L 1.246094 0 L 3.324219 0 L 3.324219 -1.664062 C 3.59375 -7.273438 6.878906 -14.835938 11.429688 -16.082031 L 11.429688 0 Z M 13.507812 0 "/></g></g></g><g fill="#101010" fill-opacity="1"><g transform="translate(29.897869, 25.38648)"><g><path d="M 7.5 -9.90625 C 7.457031 -9.820312 7.40625 -9.757812 7.34375 -9.71875 C 7.289062 -9.675781 7.222656 -9.65625 7.140625 -9.65625 C 7.046875 -9.65625 6.9375 -9.703125 6.8125 -9.796875 C 6.6875 -9.890625 6.53125 -9.992188 6.34375 -10.109375 C 6.15625 -10.222656 5.925781 -10.328125 5.65625 -10.421875 C 5.394531 -10.515625 5.078125 -10.5625 4.703125 -10.5625 C 4.335938 -10.5625 4.019531 -10.507812 3.75 -10.40625 C 3.488281 -10.3125 3.265625 -10.179688 3.078125 -10.015625 C 2.890625 -9.859375 2.75 -9.664062 2.65625 -9.4375 C 2.570312 -9.21875 2.53125 -8.984375 2.53125 -8.734375 C 2.53125 -8.398438 2.609375 -8.125 2.765625 -7.90625 C 2.921875 -7.695312 3.128906 -7.515625 3.390625 -7.359375 C 3.660156 -7.203125 3.960938 -7.066406 4.296875 -6.953125 C 4.640625 -6.847656 4.988281 -6.734375 5.34375 -6.609375 C 5.695312 -6.492188 6.039062 -6.359375 6.375 -6.203125 C 6.707031 -6.054688 7.003906 -5.867188 7.265625 -5.640625 C 7.535156 -5.410156 7.75 -5.128906 7.90625 -4.796875 C 8.070312 -4.460938 8.15625 -4.050781 8.15625 -3.5625 C 8.15625 -3.050781 8.066406 -2.566406 7.890625 -2.109375 C 7.710938 -1.660156 7.457031 -1.269531 7.125 -0.9375 C 6.789062 -0.601562 6.378906 -0.34375 5.890625 -0.15625 C 5.398438 0.03125 4.84375 0.125 4.21875 0.125 C 3.457031 0.125 2.765625 -0.0078125 2.140625 -0.28125 C 1.515625 -0.5625 0.984375 -0.9375 0.546875 -1.40625 L 1 -2.15625 C 1.039062 -2.21875 1.09375 -2.269531 1.15625 -2.3125 C 1.21875 -2.351562 1.289062 -2.375 1.375 -2.375 C 1.4375 -2.375 1.515625 -2.34375 1.609375 -2.28125 C 1.703125 -2.226562 1.804688 -2.15625 1.921875 -2.0625 C 2.035156 -1.976562 2.164062 -1.882812 2.3125 -1.78125 C 2.457031 -1.675781 2.625 -1.578125 2.8125 -1.484375 C 3 -1.398438 3.210938 -1.328125 3.453125 -1.265625 C 3.691406 -1.210938 3.960938 -1.1875 4.265625 -1.1875 C 4.640625 -1.1875 4.972656 -1.238281 5.265625 -1.34375 C 5.566406 -1.445312 5.816406 -1.59375 6.015625 -1.78125 C 6.222656 -1.96875 6.378906 -2.191406 6.484375 -2.453125 C 6.597656 -2.722656 6.65625 -3.015625 6.65625 -3.328125 C 6.65625 -3.691406 6.570312 -3.984375 6.40625 -4.203125 C 6.25 -4.429688 6.039062 -4.617188 5.78125 -4.765625 C 5.519531 -4.921875 5.21875 -5.050781 4.875 -5.15625 C 4.539062 -5.269531 4.195312 -5.378906 3.84375 -5.484375 C 3.5 -5.597656 3.15625 -5.726562 2.8125 -5.875 C 2.476562 -6.03125 2.179688 -6.222656 1.921875 -6.453125 C 1.660156 -6.691406 1.445312 -6.988281 1.28125 -7.34375 C 1.125 -7.695312 1.046875 -8.128906 1.046875 -8.640625 C 1.046875 -9.054688 1.125 -9.457031 1.28125 -9.84375 C 1.445312 -10.238281 1.679688 -10.582031 1.984375 -10.875 C 2.296875 -11.175781 2.675781 -11.414062 3.125 -11.59375 C 3.570312 -11.78125 4.085938 -11.875 4.671875 -11.875 C 5.328125 -11.875 5.925781 -11.769531 6.46875 -11.5625 C 7.007812 -11.351562 7.484375 -11.050781 7.890625 -10.65625 Z M 7.5 -9.90625 "/></g></g></g><g fill="#101010" fill-opacity="1"><g transform="translate(39.448224, 25.38648)"><g><path d="M 9.4375 -10.40625 L 5.640625 -10.40625 L 5.640625 0 L 4.0625 0 L 4.0625 -10.40625 L 0.25 -10.40625 L 0.25 -11.75 L 9.4375 -11.75 Z M 9.4375 -10.40625 "/></g></g></g><g fill="#101010" fill-opacity="1"><g transform="translate(49.78556, 25.38648)"><g><path d="M 6.03125 -1.265625 C 6.519531 -1.265625 6.953125 -1.34375 7.328125 -1.5 C 7.710938 -1.664062 8.035156 -1.894531 8.296875 -2.1875 C 8.566406 -2.488281 8.769531 -2.84375 8.90625 -3.25 C 9.050781 -3.664062 9.125 -4.117188 9.125 -4.609375 L 9.125 -11.75 L 10.703125 -11.75 L 10.703125 -4.609375 C 10.703125 -3.929688 10.59375 -3.300781 10.375 -2.71875 C 10.164062 -2.144531 9.859375 -1.644531 9.453125 -1.21875 C 9.046875 -0.789062 8.550781 -0.457031 7.96875 -0.21875 C 7.394531 0.0195312 6.75 0.140625 6.03125 0.140625 C 5.3125 0.140625 4.660156 0.0195312 4.078125 -0.21875 C 3.503906 -0.457031 3.015625 -0.789062 2.609375 -1.21875 C 2.203125 -1.644531 1.890625 -2.144531 1.671875 -2.71875 C 1.460938 -3.300781 1.359375 -3.929688 1.359375 -4.609375 L 1.359375 -11.75 L 2.9375 -11.75 L 2.9375 -4.609375 C 2.9375 -4.117188 3.003906 -3.664062 3.140625 -3.25 C 3.285156 -2.84375 3.488281 -2.492188 3.75 -2.203125 C 4.007812 -1.910156 4.332031 -1.679688 4.71875 -1.515625 C 5.101562 -1.347656 5.539062 -1.265625 6.03125 -1.265625 Z M 6.03125 -1.265625 "/></g></g></g><g fill="#101010" fill-opacity="1"><g transform="translate(62.500237, 25.38648)"><g><path d="M 11.671875 -5.875 C 11.671875 -4.988281 11.53125 -4.1875 11.25 -3.46875 C 10.976562 -2.75 10.585938 -2.128906 10.078125 -1.609375 C 9.566406 -1.097656 8.953125 -0.703125 8.234375 -0.421875 C 7.523438 -0.140625 6.742188 0 5.890625 0 L 1.5 0 L 1.5 -11.75 L 5.890625 -11.75 C 6.742188 -11.75 7.523438 -11.609375 8.234375 -11.328125 C 8.953125 -11.046875 9.566406 -10.644531 10.078125 -10.125 C 10.585938 -9.601562 10.976562 -8.984375 11.25 -8.265625 C 11.53125 -7.546875 11.671875 -6.75 11.671875 -5.875 Z M 10.046875 -5.875 C 10.046875 -6.59375 9.945312 -7.234375 9.75 -7.796875 C 9.550781 -8.367188 9.269531 -8.847656 8.90625 -9.234375 C 8.550781 -9.628906 8.113281 -9.929688 7.59375 -10.140625 C 7.082031 -10.347656 6.515625 -10.453125 5.890625 -10.453125 L 3.09375 -10.453125 L 3.09375 -1.28125 L 5.890625 -1.28125 C 6.515625 -1.28125 7.082031 -1.382812 7.59375 -1.59375 C 8.113281 -1.800781 8.550781 -2.097656 8.90625 -2.484375 C 9.269531 -2.878906 9.550781 -3.359375 9.75 -3.921875 C 9.945312 -4.492188 10.046875 -5.144531 10.046875 -5.875 Z M 10.046875 -5.875 "/></g></g></g><g fill="#101010" fill-opacity="1"><g transform="translate(75.624801, 25.38648)"><g><path d="M 3.09375 0 L 1.5 0 L 1.5 -11.75 L 3.09375 -11.75 Z M 3.09375 0 "/></g></g></g><g fill="#101010" fill-opacity="1"><g transform="translate(80.871349, 25.38648)"><g><path d="M 12.34375 -5.875 C 12.34375 -4.988281 12.203125 -4.175781 11.921875 -3.4375 C 11.648438 -2.707031 11.257812 -2.078125 10.75 -1.546875 C 10.238281 -1.015625 9.625 -0.601562 8.90625 -0.3125 C 8.195312 -0.0195312 7.414062 0.125 6.5625 0.125 C 5.695312 0.125 4.90625 -0.0195312 4.1875 -0.3125 C 3.476562 -0.601562 2.867188 -1.015625 2.359375 -1.546875 C 1.859375 -2.078125 1.46875 -2.707031 1.1875 -3.4375 C 0.90625 -4.175781 0.765625 -4.988281 0.765625 -5.875 C 0.765625 -6.75 0.90625 -7.550781 1.1875 -8.28125 C 1.46875 -9.019531 1.859375 -9.65625 2.359375 -10.1875 C 2.867188 -10.71875 3.476562 -11.128906 4.1875 -11.421875 C 4.90625 -11.722656 5.695312 -11.875 6.5625 -11.875 C 7.414062 -11.875 8.195312 -11.722656 8.90625 -11.421875 C 9.625 -11.128906 10.238281 -10.71875 10.75 -10.1875 C 11.257812 -9.65625 11.648438 -9.019531 11.921875 -8.28125 C 12.203125 -7.550781 12.34375 -6.75 12.34375 -5.875 Z M 10.71875 -5.875 C 10.71875 -6.59375 10.617188 -7.238281 10.421875 -7.8125 C 10.222656 -8.382812 9.941406 -8.867188 9.578125 -9.265625 C 9.222656 -9.660156 8.785156 -9.960938 8.265625 -10.171875 C 7.753906 -10.390625 7.1875 -10.5 6.5625 -10.5 C 5.925781 -10.5 5.351562 -10.390625 4.84375 -10.171875 C 4.332031 -9.960938 3.894531 -9.660156 3.53125 -9.265625 C 3.164062 -8.867188 2.882812 -8.382812 2.6875 -7.8125 C 2.488281 -7.238281 2.390625 -6.59375 2.390625 -5.875 C 2.390625 -5.144531 2.488281 -4.492188 2.6875 -3.921875 C 2.882812 -3.359375 3.164062 -2.878906 3.53125 -2.484375 C 3.894531 -2.085938 4.332031 -1.78125 4.84375 -1.5625 C 5.351562 -1.351562 5.925781 -1.25 6.5625 -1.25 C 7.1875 -1.25 7.753906 -1.351562 8.265625 -1.5625 C 8.785156 -1.78125 9.222656 -2.085938 9.578125 -2.484375 C 9.941406 -2.878906 10.222656 -3.359375 10.421875 -3.921875 C 10.617188 -4.492188 10.71875 -5.144531 10.71875 -5.875 Z M 10.71875 -5.875 "/></g></g></g></svg>