<svg xmlns="http://www.w3.org/2000/svg" xmlns:xlink="http://www.w3.org/1999/xlink" width="25" zoomAndPan="magnify" viewBox="0 0 750 749.999995" height="25" preserveAspectRatio="xMidYMid meet" version="1.0"><defs><clipPath id="4c3bda25dd"><path d="M 4.5 4.5 L 745.5 4.5 L 745.5 745.5 L 4.5 745.5 Z M 4.5 4.5 " clip-rule="nonzero"/></clipPath></defs><g clip-path="url(#4c3bda25dd)"><path fill="#211f22" d="M 374.996094 484.226562 C 279.804688 484.226562 202.363281 406.785156 202.363281 311.59375 C 202.363281 216.402344 279.804688 138.960938 374.996094 138.960938 C 470.183594 138.960938 547.628906 216.402344 547.628906 311.59375 C 547.628906 406.785156 470.183594 484.226562 374.996094 484.226562 Z M 374.996094 162.738281 C 292.914062 162.738281 226.136719 229.515625 226.136719 311.59375 C 226.136719 393.675781 292.914062 460.453125 374.996094 460.453125 C 457.074219 460.453125 523.851562 393.675781 523.851562 311.59375 C 523.851562 229.515625 457.074219 162.738281 374.996094 162.738281 Z M 636.972656 113.015625 C 566.996094 43.039062 473.957031 4.5 374.996094 4.5 C 276.03125 4.5 182.992188 43.039062 113.015625 113.015625 C 43.039062 182.992188 4.5 276.03125 4.5 374.996094 C 4.5 473.957031 43.039062 566.996094 113.015625 636.972656 C 182.992188 706.953125 276.03125 745.488281 374.996094 745.488281 C 473.957031 745.488281 566.996094 706.953125 636.972656 636.972656 C 706.953125 566.996094 745.488281 473.957031 745.488281 374.996094 C 745.488281 276.03125 706.953125 182.992188 636.972656 113.015625 Z M 129.828125 129.828125 C 195.316406 64.339844 282.382812 28.277344 374.996094 28.277344 C 467.605469 28.277344 554.675781 64.339844 620.160156 129.828125 C 685.648438 195.316406 721.714844 282.382812 721.714844 374.996094 C 721.714844 451.984375 696.769531 525.128906 650.738281 585.242188 C 614.109375 534.019531 555.613281 503.757812 492.089844 503.757812 L 257.902344 503.757812 C 194.375 503.757812 135.882812 534.019531 99.25 585.238281 C 53.222656 525.125 28.277344 451.980469 28.277344 374.996094 C 28.277344 282.382812 64.339844 195.316406 129.828125 129.828125 Z M 374.996094 721.714844 C 282.382812 721.714844 195.316406 685.648438 129.828125 620.160156 C 124.6875 615.019531 119.75 609.730469 114.972656 604.332031 C 146.824219 556.183594 199.980469 527.535156 257.902344 527.535156 L 492.089844 527.535156 C 550.007812 527.535156 603.164062 556.183594 635.015625 604.332031 C 630.242188 609.730469 625.304688 615.019531 620.160156 620.160156 C 554.675781 685.648438 467.605469 721.714844 374.996094 721.714844 Z M 374.996094 721.714844 " fill-opacity="1" fill-rule="nonzero"/></g></svg>