<svg xmlns="http://www.w3.org/2000/svg" xmlns:xlink="http://www.w3.org/1999/xlink" width="25" zoomAndPan="magnify" viewBox="0 0 750 749.999995" height="25" preserveAspectRatio="xMidYMid meet" version="1.0"><path fill="#000000" d="M 745.613281 714.070312 L 557.929688 526.390625 C 601.578125 472.464844 627.765625 403.859375 627.765625 329.238281 C 627.765625 156.164062 486.960938 15.355469 313.882812 15.355469 C 140.808594 15.355469 0 156.164062 0 329.238281 C 0 502.316406 140.808594 643.121094 313.882812 643.121094 C 404.136719 643.121094 485.601562 604.816406 542.914062 543.628906 L 729.484375 730.199219 C 733.90625 734.621094 741.1875 734.621094 745.613281 730.199219 C 750.035156 725.773438 750.035156 718.492188 745.613281 714.070312 Z M 313.882812 620.316406 C 153.382812 620.316406 22.804688 489.738281 22.804688 329.238281 C 22.804688 168.738281 153.382812 38.160156 313.882812 38.160156 C 474.382812 38.160156 604.960938 168.738281 604.960938 329.238281 C 604.960938 489.738281 474.382812 620.316406 313.882812 620.316406 Z M 313.882812 620.316406 " fill-opacity="1" fill-rule="nonzero"/></svg>