<svg xmlns="http://www.w3.org/2000/svg" xmlns:xlink="http://www.w3.org/1999/xlink" width="25" zoomAndPan="magnify" viewBox="0 0 750 749.999995" height="25" preserveAspectRatio="xMidYMid meet" version="1.0"><defs><clipPath id="c7404ea4b4"><path d="M 67 155 L 684.9375 155 L 684.9375 746.210938 L 67 746.210938 Z M 67 155 " clip-rule="nonzero"/></clipPath><clipPath id="ff40056e93"><path d="M 221 3.710938 L 533 3.710938 L 533 281 L 221 281 Z M 221 3.710938 " clip-rule="nonzero"/></clipPath></defs><g clip-path="url(#c7404ea4b4)"><path fill="#000000" d="M 639.222656 746.210938 L 114.261719 746.210938 C 101.511719 746.210938 89.140625 740.898438 80.40625 731.640625 C 71.636719 722.382812 67.003906 709.769531 67.71875 697.03125 L 95.359375 199.960938 C 96.726562 175.261719 117.152344 155.9375 141.898438 155.9375 L 611.585938 155.9375 C 636.332031 155.9375 656.757812 175.261719 658.125 199.960938 L 685.765625 697.03125 C 686.480469 709.769531 681.847656 722.382812 673.078125 731.640625 C 664.3125 740.898438 651.96875 746.210938 639.222656 746.210938 Z M 141.898438 187.003906 C 133.660156 187.003906 126.820312 193.46875 126.382812 201.667969 L 98.746094 698.742188 C 98.527344 703.058594 100.019531 707.160156 102.976562 710.296875 C 105.960938 713.402344 109.9375 715.144531 114.261719 715.144531 L 639.222656 715.144531 C 643.546875 715.144531 647.554688 713.402344 650.507812 710.296875 C 653.460938 707.160156 654.984375 703.058594 654.738281 698.742188 L 627.097656 201.667969 C 626.664062 193.46875 619.824219 187.003906 611.585938 187.003906 Z M 141.898438 187.003906 " fill-opacity="1" fill-rule="nonzero"/></g><g clip-path="url(#ff40056e93)"><path fill="#000000" d="M 516.640625 280.953125 C 508.0625 280.953125 501.097656 273.992188 501.097656 265.417969 L 501.097656 158.796875 C 501.097656 90.261719 445.324219 34.527344 376.742188 34.527344 C 308.160156 34.527344 252.386719 90.261719 252.386719 158.796875 L 252.386719 265.417969 C 252.386719 273.992188 245.421875 280.953125 236.84375 280.953125 C 228.261719 280.953125 221.296875 273.992188 221.296875 265.417969 L 221.296875 158.796875 C 221.296875 73.144531 291.03125 3.460938 376.742188 3.460938 C 462.453125 3.460938 532.183594 73.144531 532.183594 158.796875 L 532.183594 265.417969 C 532.183594 273.992188 525.222656 280.953125 516.640625 280.953125 Z M 516.640625 280.953125 " fill-opacity="1" fill-rule="nonzero"/></g></svg>