<svg xmlns="http://www.w3.org/2000/svg" xmlns:xlink="http://www.w3.org/1999/xlink" width="500" zoomAndPan="magnify" viewBox="0 0 375 374.999991" height="500" preserveAspectRatio="xMidYMid meet" version="1.0"><defs><clipPath id="aed5651a44"><path d="M 40 131 L 180 131 L 180 300.515625 L 40 300.515625 Z M 40 131 " clip-rule="nonzero"/></clipPath><clipPath id="4e183ec95b"><path d="M 1 74.765625 L 186 74.765625 L 186 165 L 1 165 Z M 1 74.765625 " clip-rule="nonzero"/></clipPath></defs><rect x="-37.5" width="450" fill="#ffffff" y="-37.499999" height="449.999989" fill-opacity="1"/><rect x="-37.5" width="450" fill="#ffffff" y="-37.499999" height="449.999989" fill-opacity="1"/><g clip-path="url(#aed5651a44)"><path fill="#095d40" d="M 179.851562 131.824219 L 179.851562 300.042969 L 40.046875 280.519531 L 41.140625 165.488281 L 152.125 179.867188 L 179.851562 131.824219 " fill-opacity="1" fill-rule="nonzero"/></g><g clip-path="url(#4e183ec95b)"><path fill="#095d40" d="M 185.222656 94.675781 L 144.707031 164.851562 L 1.476562 146.285156 L 42.003906 74.652344 L 185.222656 94.675781 " fill-opacity="1" fill-rule="nonzero"/></g><path fill="#095d40" d="M 328.722656 166.542969 L 327.65625 281.714844 L 191.8125 299.402344 L 191.8125 131.292969 L 222.382812 179.773438 L 328.722656 166.542969 " fill-opacity="1" fill-rule="nonzero"/><path fill="#095d40" d="M 329.589844 75.851562 L 373.828125 146.902344 L 229.460938 164.851562 L 185.222656 94.675781 L 329.589844 75.851562 " fill-opacity="1" fill-rule="nonzero"/></svg>