<svg xmlns="http://www.w3.org/2000/svg" xmlns:xlink="http://www.w3.org/1999/xlink" width="500" zoomAndPan="magnify" viewBox="0 0 375 374.999991" height="500" preserveAspectRatio="xMidYMid meet" version="1.0"><defs><clipPath id="1400de98ee"><path d="M 82 174 L 371.683594 174 L 371.683594 319 L 82 319 Z M 82 174 " clip-rule="nonzero"/></clipPath><clipPath id="001bea3781"><path d="M 3.433594 213 L 70 213 L 70 331.992188 L 3.433594 331.992188 Z M 3.433594 213 " clip-rule="nonzero"/></clipPath></defs><rect x="-37.5" width="450" fill="#ffffff" y="-37.499999" height="449.999989" fill-opacity="1"/><rect x="-37.5" width="450" fill="#ffffff" y="-37.499999" height="449.999989" fill-opacity="1"/><g clip-path="url(#1400de98ee)"><path fill="#095d40" d="M 351.921875 174.953125 C 349.539062 174.953125 347.28125 175.445312 345.15625 176.195312 L 254.300781 233 C 248.15625 236.824219 237.308594 239.960938 230.019531 239.960938 L 154.621094 239.960938 C 150.992188 239.960938 148.050781 237.019531 148.050781 233.390625 C 148.050781 229.761719 150.992188 226.820312 154.621094 226.820312 L 226.945312 226.820312 C 237.828125 226.820312 246.652344 217.964844 246.652344 207.082031 C 246.652344 196.199219 237.828125 187.375 226.945312 187.375 L 134.914062 187.375 C 127.65625 187.375 117.589844 191.523438 112.460938 196.65625 L 82.328125 226.820312 L 82.328125 318.855469 L 216.878906 318.855469 C 231.390625 318.855469 251.949219 310.945312 262.699219 301.238281 L 365.78125 208.488281 L 365.78125 208.453125 C 369.34375 204.925781 371.566406 199.988281 371.566406 194.5625 C 371.566406 183.746094 362.773438 174.953125 351.921875 174.953125 " fill-opacity="1" fill-rule="nonzero"/></g><path fill="#095d40" d="M 272.964844 69.03125 L 272.964844 71.546875 C 276.394531 72.59375 279.566406 74.390625 282.179688 77.007812 C 284.171875 79 285.808594 81.386719 286.917969 84 C 288.324219 87.367188 286.722656 91.222656 283.386719 92.628906 C 280.085938 94 276.199219 92.464844 274.761719 89.132812 C 274.367188 88.054688 273.683594 87.136719 272.898438 86.320312 C 271.101562 84.523438 268.320312 83.671875 266.359375 83.609375 C 262.699219 83.609375 259.433594 85.894531 258.222656 89.292969 C 257.40625 91.484375 257.503906 93.835938 258.484375 95.929688 C 259.464844 98.019531 261.199219 99.589844 263.386719 100.40625 L 273.878906 104.199219 C 285.1875 108.347656 291.003906 120.867188 286.917969 132.140625 C 284.53125 138.613281 279.304688 143.480469 272.964844 145.476562 L 272.964844 147.925781 C 272.964844 151.554688 269.988281 154.496094 266.394531 154.496094 C 262.734375 154.496094 259.824219 151.554688 259.824219 147.925781 L 259.824219 145.410156 C 256.394531 144.363281 253.222656 142.566406 250.574219 139.953125 C 248.613281 137.992188 247.011719 135.636719 245.871094 133.023438 C 244.429688 129.65625 245.96875 125.800781 249.332031 124.363281 C 252.667969 122.890625 256.523438 124.492188 257.929688 127.792969 C 258.417969 128.90625 259.074219 129.851562 259.890625 130.636719 C 261.621094 132.402344 263.941406 133.382812 266.394531 133.382812 C 270.023438 133.382812 273.324219 131.0625 274.5625 127.664062 C 275.347656 125.472656 275.25 123.152344 274.269531 121.027344 C 273.289062 118.9375 271.558594 117.367188 269.367188 116.550781 L 258.875 112.761719 C 247.570312 108.609375 241.71875 96.09375 245.871094 84.816406 C 248.222656 78.347656 253.453125 73.476562 259.824219 71.484375 L 259.824219 69.03125 C 259.824219 65.402344 262.734375 62.460938 266.394531 62.460938 C 269.988281 62.460938 272.964844 65.402344 272.964844 69.03125 Z M 200.636719 108.480469 C 200.636719 144.789062 230.082031 174.234375 266.394531 174.234375 C 302.703125 174.234375 332.117188 144.789062 332.117188 108.480469 C 332.117188 72.203125 302.703125 42.753906 266.394531 42.753906 C 230.082031 42.753906 200.636719 72.203125 200.636719 108.480469 " fill-opacity="1" fill-rule="nonzero"/><g clip-path="url(#001bea3781)"><path fill="#095d40" d="M 56.019531 213.652344 L 16.570312 213.652344 C 9.316406 213.652344 3.433594 219.535156 3.433594 226.820312 L 3.433594 318.855469 C 3.433594 326.109375 9.316406 331.992188 16.570312 331.992188 L 56.019531 331.992188 C 63.304688 331.992188 69.1875 326.109375 69.1875 318.855469 L 69.1875 226.820312 C 69.15625 219.535156 63.304688 213.652344 56.019531 213.652344 " fill-opacity="1" fill-rule="nonzero"/></g></svg>