<svg xmlns="http://www.w3.org/2000/svg" xmlns:xlink="http://www.w3.org/1999/xlink" width="500" zoomAndPan="magnify" viewBox="0 0 375 374.999991" height="500" preserveAspectRatio="xMidYMid meet" version="1.0"><defs><clipPath id="8eed925b5e"><path d="M 1 1 L 374 1 L 374 373.5 L 1 373.5 Z M 1 1 " clip-rule="nonzero"/></clipPath></defs><g clip-path="url(#8eed925b5e)"><path fill="#171517" d="M 18.484375 373.488281 C 14.203125 373.488281 9.929688 371.855469 6.664062 368.585938 C 0.136719 362.050781 0.136719 351.457031 6.664062 344.921875 L 344.726562 6.523438 C 351.25 -0.0117188 361.835938 -0.0117188 368.367188 6.523438 C 374.894531 13.058594 374.894531 23.652344 368.367188 30.1875 L 30.304688 368.585938 C 27.039062 371.855469 22.761719 373.488281 18.484375 373.488281 " fill-opacity="1" fill-rule="nonzero"/><path fill="#171517" d="M 356.546875 373.488281 C 352.269531 373.488281 347.992188 371.855469 344.730469 368.585938 L 6.664062 30.1875 C 0.136719 23.652344 0.136719 13.058594 6.664062 6.523438 C 13.191406 -0.0117188 23.777344 -0.0117188 30.304688 6.523438 L 368.367188 344.921875 C 374.894531 351.457031 374.894531 362.050781 368.367188 368.585938 C 365.105469 371.855469 360.828125 373.488281 356.546875 373.488281 " fill-opacity="1" fill-rule="nonzero"/></g></svg>